<?xml version="1.0" standalone="no"?>
<!DOCTYPE svg PUBLIC "-//W3C//DTD SVG 20010904//EN"
 "http://www.w3.org/TR/2001/REC-SVG-20010904/DTD/svg10.dtd">
<svg version="1.0" xmlns="http://www.w3.org/2000/svg"
 width="490.000000pt" height="490.000000pt" viewBox="0 0 490.000000 490.000000"
 preserveAspectRatio="xMidYMid meet">

<g transform="translate(0.000000,490.000000) scale(0.100000,-0.100000)"
fill="#000000" stroke="none">
<path d="M2280 3649 c-85 -49 -158 -95 -162 -102 -5 -7 -8 -99 -7 -206 l1
-194 -64 -35 -65 -36 -132 77 c-73 42 -142 77 -154 77 -22 0 -317 -164 -329
-184 -4 -6 -8 -95 -8 -197 0 -165 2 -188 18 -201 9 -8 74 -48 145 -87 l127
-73 0 -72 c0 -86 4 -81 -130 -156 -52 -29 -110 -64 -127 -77 l-33 -24 0 -188
c0 -167 2 -190 18 -203 32 -27 302 -178 319 -178 9 0 79 37 155 81 l139 81 57
-30 57 -31 3 -162 c1 -94 7 -168 13 -175 10 -12 228 -143 297 -178 l33 -17
147 83 c81 45 157 93 170 105 21 21 22 29 22 181 l0 159 52 29 c29 16 56 30
60 32 4 2 69 -33 146 -77 76 -45 146 -81 156 -81 15 0 125 61 279 154 l57 35
0 189 c0 167 -2 191 -17 204 -10 9 -75 48 -145 88 l-128 73 0 78 0 78 128 72
c70 40 135 79 145 87 15 13 17 36 17 203 l0 188 -32 24 c-62 45 -284 167 -305
167 -12 0 -81 -34 -154 -77 l-134 -76 -63 35 -64 35 1 194 c1 142 -2 198 -12
209 -15 19 -293 179 -321 185 -14 3 -74 -26 -176 -86z m261 -70 c49 -28 89
-54 89 -57 0 -10 -164 -102 -181 -102 -16 0 -179 92 -179 102 0 5 168 107 179
108 2 0 44 -23 92 -51z m-231 -200 c50 -28 90 -54 90 -58 0 -9 -163 -101 -178
-101 -8 0 -12 32 -12 105 0 58 2 105 5 105 3 0 46 -23 95 -51z m380 -54 c0
-83 -3 -105 -14 -105 -19 0 -177 93 -174 102 3 9 169 107 181 108 4 0 7 -47 7
-105z m-290 -168 c0 -19 -3 -36 -6 -40 -5 -5 -38 11 -64 31 -7 5 43 42 58 42
7 0 12 -13 12 -33z m149 14 l23 -18 -30 -21 c-16 -12 -33 -22 -36 -22 -3 0 -6
18 -6 40 0 45 12 50 49 21z m-760 -97 c45 -25 83 -50 86 -54 3 -5 -135 -90
-176 -108 -9 -4 -179 97 -179 106 0 11 152 100 171 101 9 1 53 -20 98 -45z
m1509 -1 c45 -25 82 -49 82 -53 0 -7 -91 -65 -148 -94 l-32 -17 -90 53 c-50
29 -90 55 -90 58 0 8 163 98 180 99 8 1 52 -20 98 -46z m-961 -44 c75 -44 109
-58 125 -54 11 4 62 31 113 61 50 30 97 54 104 54 6 0 51 -23 99 -51 l87 -51
-2 -136 -1 -137 -61 -37 -61 -38 -139 80 c-77 44 -145 80 -151 80 -7 0 -75
-36 -152 -80 l-139 -80 -62 38 -62 37 -3 136 -3 136 88 51 c49 28 94 51 102
51 8 1 61 -26 118 -60z m-737 -179 l45 -26 3 -108 c3 -126 12 -121 -110 -49
l-78 45 0 109 0 110 48 -28 c26 -15 67 -39 92 -53z m340 5 c0 -35 -4 -67 -10
-70 -10 -6 -31 3 -94 42 l-38 25 63 38 c35 21 67 36 71 34 5 -3 8 -34 8 -69z
m1500 -34 l0 -108 -87 -52 c-47 -28 -90 -51 -95 -51 -4 0 -8 47 -8 105 l0 104
93 55 c50 31 93 55 95 56 1 0 2 -49 2 -109z m-404 68 c30 -17 54 -34 54 -39 0
-9 -104 -70 -120 -70 -11 0 -14 122 -3 133 9 10 11 10 69 -24z m-1163 -204 c2
-9 -115 -76 -121 -70 -5 5 -8 135 -3 140 6 7 122 -59 124 -70z m1277 0 c0 -41
-2 -75 -4 -75 -13 0 -127 73 -122 77 10 10 111 71 119 72 4 1 7 -33 7 -74z
m-609 -46 c49 -28 89 -54 89 -57 0 -8 -166 -102 -180 -102 -14 0 -180 94 -180
102 0 6 169 108 179 108 2 0 44 -23 92 -51z m-487 -51 l56 -33 0 -162 c0 -189
-18 -161 169 -268 l121 -70 -2 -74 -3 -75 -115 -67 -115 -67 -50 25 c-88 44
-85 37 -85 207 0 83 -4 156 -8 162 -4 6 -67 45 -139 88 l-133 78 -1 41 c0 23
-2 57 -3 76 -1 18 2 38 8 43 24 21 212 126 228 127 9 1 41 -14 72 -31z m981
-32 l110 -63 3 -80 3 -81 -137 -78 c-90 -52 -139 -87 -145 -102 -5 -13 -9 -88
-9 -167 l0 -144 -60 -35 -61 -36 -82 47 c-45 25 -99 57 -119 70 l-38 23 0 73
0 72 135 78 c74 43 139 87 145 97 5 10 10 88 10 172 l0 153 53 32 c28 18 59
32 67 33 9 0 65 -29 125 -64z m-724 -117 l89 -51 0 -104 c0 -61 -4 -104 -10
-104 -5 0 -48 21 -94 48 l-85 47 -1 108 c0 59 3 107 6 107 4 0 47 -23 95 -51z
m377 -56 l-3 -107 -80 -48 c-44 -26 -86 -47 -92 -48 -10 0 -13 27 -13 104 l0
104 88 51 c48 28 91 51 95 51 4 0 6 -48 5 -107z m-1038 -242 c0 -39 -3 -72 -8
-75 -9 -5 -122 62 -122 73 0 9 101 69 118 70 8 1 12 -19 12 -68z m167 37 c28
-15 54 -31 57 -36 5 -9 -105 -76 -121 -73 -6 1 -9 116 -4 139 1 4 4 3 68 -30z
m1335 -34 c1 -36 1 -70 -2 -75 -5 -8 -130 60 -130 71 0 5 111 69 122 70 3 0 8
-30 10 -66z m174 34 c30 -18 54 -36 54 -40 0 -10 -113 -77 -122 -72 -13 8 -10
144 3 144 6 0 35 -15 65 -32z m-1726 -208 l45 -26 3 -107 c1 -59 -1 -107 -5
-107 -4 0 -46 22 -93 49 l-85 48 -5 108 c-3 59 -3 109 -1 111 2 2 25 -8 50
-23 25 -15 66 -39 91 -53z m339 9 c-1 -33 -6 -62 -11 -65 -12 -8 -121 57 -111
66 22 21 108 68 116 63 4 -2 7 -32 6 -64z m1501 -38 l0 -108 -87 -52 c-47 -28
-90 -51 -95 -51 -5 0 -7 48 -6 107 l3 107 90 52 c50 29 91 53 93 54 1 0 2 -49
2 -109z m-404 68 c30 -17 54 -32 54 -34 0 -6 -109 -65 -120 -65 -6 0 -10 28
-10 65 0 42 4 65 11 65 6 0 36 -14 65 -31z m-1161 -199 c0 -14 -116 -83 -124
-74 -6 6 -9 136 -3 147 6 12 127 -58 127 -73z m1277 4 c2 -42 0 -78 -4 -80 -4
-2 -28 8 -55 24 -26 15 -57 31 -67 35 -15 6 -17 10 -7 20 13 14 112 75 123 76
3 1 8 -33 10 -75z m-752 -99 c0 -41 -3 -75 -6 -75 -15 0 -124 65 -122 72 3 9
108 76 121 77 4 1 7 -33 7 -74z m176 34 c30 -17 54 -34 54 -37 0 -7 -112 -72
-124 -72 -3 0 -6 32 -6 70 0 45 4 70 11 70 6 0 36 -14 65 -31z m-265 -180 l89
-51 0 -103 c0 -94 -9 -131 -25 -106 -3 6 -41 29 -85 53 l-80 43 0 108 c0 59 3
107 6 107 4 0 47 -23 95 -51z m377 -56 l-3 -108 -80 -47 c-44 -25 -86 -47 -93
-47 -10 -1 -12 24 -10 105 l3 107 85 48 c47 27 89 49 93 49 4 0 6 -48 5 -107z"/>
</g>
</svg>
